<?xml version="1.0" encoding="UTF-8" standalone="no"?>
<!-- Created with Inkscape (http://www.inkscape.org/) -->

<svg
   xmlns:dc="http://purl.org/dc/elements/1.1/"
   xmlns:cc="http://creativecommons.org/ns#"
   xmlns:rdf="http://www.w3.org/1999/02/22-rdf-syntax-ns#"
   xmlns:svg="http://www.w3.org/2000/svg"
   xmlns="http://www.w3.org/2000/svg"
   xmlns:sodipodi="http://sodipodi.sourceforge.net/DTD/sodipodi-0.dtd"
   xmlns:inkscape="http://www.inkscape.org/namespaces/inkscape"
   width="1588.2164"
   height="847.04083"
   id="svg4871"
   version="1.1"
   inkscape:version="0.92.2 (5c3e80d, 2017-08-06)"
   sodipodi:docname="drawing.svg">
  <defs
     id="defs4873" />
  <sodipodi:namedview
     id="base"
     pagecolor="#ffffff"
     bordercolor="#666666"
     borderopacity="1.0"
     inkscape:pageopacity="0.0"
     inkscape:pageshadow="2"
     inkscape:zoom="0.44725269"
     inkscape:cx="395.22806"
     inkscape:cy="684.67522"
     inkscape:document-units="px"
     inkscape:current-layer="layer1"
     showgrid="false"
     width="1920px"
     inkscape:window-width="958"
     inkscape:window-height="974"
     inkscape:window-x="-10"
     inkscape:window-y="0"
     inkscape:window-maximized="0"
     fit-margin-top="0"
     fit-margin-left="0"
     fit-margin-right="0"
     fit-margin-bottom="0" />
  <metadata
     id="metadata4876">
    <rdf:RDF>
      <cc:Work
         rdf:about="">
        <dc:format>image/svg+xml</dc:format>
        <dc:type
           rdf:resource="http://purl.org/dc/dcmitype/StillImage" />
        <dc:title />
      </cc:Work>
    </rdf:RDF>
  </metadata>
  <g
     inkscape:label="Layer 1"
     inkscape:groupmode="layer"
     id="layer1"
     transform="translate(-1.3125275,-628.60194)">
    <path
       style="fill:#485053;fill-opacity:1;stroke:none"
       d="m 654.10887,635.77417 40.3204,0 33.9345,0 36.7312,0 c 0,0 2.6731,-0.0383 4.0088,0 3.775,0.10826 7.5469,0.34337 11.311,0.64927 3.465,0.2816 6.7972,0.62384 10.3722,1.09142 3.6295,0.51893 6.6207,0.79185 9.9035,1.36446 2.632,0.45908 5.245,1.02958 7.8415,1.65877 2.6655,0.64592 5.3237,1.40889 7.9363,2.17097 2.1519,0.6277 4.2502,1.28931 6.3614,1.97763 3.6865,1.20191 7.9359,2.65995 11.0088,3.75751 1.7036,0.63406 3.0398,1.14299 4.9481,1.92136 1.9084,0.77837 4.3791,1.8085 6.4892,2.77552 2.1849,1.0013 4.3896,2.0437 6.5109,3.10794 1.9984,1.00257 4.0237,2.04475 5.9658,3.08865 0.9377,0.50399 1.8069,0.96055 2.7182,1.44201 0.6429,0.33974 1.2851,0.69812 1.9281,1.0465 0.335,0.18151 1.0053,0.54386 1.0053,0.54386 l 0.6592,-5.45497 c -0.2656,-0.81403 -1.0099,-1.40516 -1.6607,-1.73218 -1.1279,-0.70484 -2.1553,-1.31828 -3.2339,-1.97588 -1.4439,-0.88033 -2.8666,-1.79666 -4.3343,-2.63684 -1.0068,-0.57635 -2.0284,-1.12774 -3.0653,-1.64803 -1.2301,-0.61726 -2.4981,-1.1561 -3.7411,-1.74691 -1.0141,-0.482 -1.9695,-0.97162 -3.0323,-1.46674 -1.0628,-0.49512 -0.8197,-0.46399 -3.3455,-1.49971 -2.5258,-1.03572 -8.4374,-3.12854 -11.9124,-4.44119 -2.6724,-0.9451 -4.0954,-1.3878 -5.9028,-2.01907 -3.3015,-1.05884 -6.1511,-1.69749 -10.3496,-2.80165 -2.5408,-0.66819 -3.7782,-1.18612 -6.6416,-1.68099 -2.5356,-0.43822 -4.4983,-0.88747 -6.4372,-1.16445 l -2.4127,-0.36822 c 0,0 -1.7733,-0.2715 -3.0983,-0.44496 -1.325,-0.17346 -3.5086,-0.44201 -4.8542,-0.57398 -1.516,-0.14464 -2.5805,-0.29828 -5.9935,-0.70817 -3.413,-0.4099 -7.8908,-0.70566 -11.783,-1.03026 -1.974,-0.16575 -6.2427,-0.37388 -6.2427,-0.37388 l -12.3932,0 -16.4967,0 -15.4256,0 -15.03,0 -15.6727,0 -14.8323,0 -10.5638,0 -2.7193,0 -3.4773,0.31313 -2.6039,0.95585 -1.7469,1.3349 -1.0053,1.54091 z"
       id="path5631"
       inkscape:connector-curvature="0"
       sodipodi:nodetypes="ccccaacaasaczssssscccaaasczccsscczczccccccccccccccc" />
    <path
       style="fill:#485053;fill-opacity:1;stroke:none"
       d="m 315.9055,635.77417 -40.32035,0 -33.9345,0 -36.7312,0 c 0,0 -2.6731,-0.0383 -4.0088,0 -3.775,0.10826 -7.5469,0.34337 -11.31099,0.64927 -3.465,0.2816 -6.7972,0.62384 -10.3722,1.09142 -3.6295,0.51893 -6.6207,0.79185 -9.9035,1.36446 -2.632,0.45908 -5.245,1.02958 -7.8415,1.65877 -2.6655,0.64592 -5.3237,1.40889 -7.9363,2.17097 -2.1519,0.6277 -4.2502,1.28931 -6.3614,1.97763 -3.6865,1.20191 -7.9359,2.65995 -11.0088,3.75751 -1.7036,0.63406 -3.0398,1.14299 -4.9481,1.92136 -1.9084,0.77837 -4.3791,1.8085 -6.4892,2.77552 -2.1849,1.0013 -4.3896,2.0437 -6.5109,3.10794 -1.9984,1.00257 -4.0237,2.04475 -5.9658,3.08865 -0.9377,0.50399 -1.8069,0.96055 -2.7182,1.44201 -0.6429,0.33974 -1.2851,0.69812 -1.9281,1.0465 -0.335,0.18151 -1.0053,0.54386 -1.0053,0.54386 l -0.6592,-5.45497 c 0.2656,-0.81403 1.0099,-1.40516 1.6607,-1.73218 1.1279,-0.70484 2.1553,-1.31828 3.2339,-1.97588 1.4439,-0.88033 2.8666,-1.79666 4.3343,-2.63684 1.0068,-0.57635 2.0284,-1.12774 3.0653,-1.64803 1.2301,-0.61726 2.4981,-1.1561 3.7411,-1.74691 1.0141,-0.482 1.9695,-0.97162 3.0323,-1.46674 1.0628,-0.49512 0.8197,-0.46399 3.3455,-1.49971 2.5258,-1.03572 8.4374,-3.12854 11.9124,-4.44119 2.6724,-0.9451 4.0954,-1.3878 5.9028,-2.01907 3.3015,-1.05884 6.1511,-1.69749 10.3496,-2.80165 2.5408,-0.66819 3.7782,-1.18612 6.6416,-1.68099 2.5356,-0.43822 4.4983,-0.88747 6.4372,-1.16445 l 2.4127,-0.36822 c 0,0 1.7733,-0.2715 3.0983,-0.44496 1.325,-0.17346 3.5086,-0.44201 4.8542,-0.57398 1.516,-0.14464 2.5805,-0.29828 5.9935,-0.70817 3.413,-0.4099 7.89079,-0.70566 11.78299,-1.03026 1.974,-0.16575 6.2427,-0.37388 6.2427,-0.37388 l 12.3932,0 16.4967,0 15.4256,0 15.03,0 15.6727,0 14.8323,0 10.56375,0 2.7193,0 3.4773,0.31313 2.6039,0.95585 1.7469,1.3349 1.0053,1.54091 z"
       id="path5631-7"
       inkscape:connector-curvature="0"
       sodipodi:nodetypes="ccccaacaasaczssssscccaaasczccsscczczccccccccccccccc" />
    <path
       inkscape:connector-curvature="0"
       style="fill:#485053;fill-opacity:1;stroke:#1a1c1b;stroke-width:3;stroke-linecap:butt;stroke-linejoin:bevel;stroke-miterlimit:4;stroke-opacity:1;stroke-dasharray:none"
       d="m 190.0261,762.87858 c -4.56016,0 -8.21875,3.65859 -8.21875,8.21875 l 0,47.1563 -47.15625,0 c -4.56016,0 -8.25,3.6898 -8.25,8.25 l 0,34.5937 c 0,4.5602 3.68984,8.2187 8.25,8.2187 l 47.15625,0 0,47.1563 c 0,4.5602 3.65859,8.25 8.21875,8.25 l 34.625,0 c 4.56016,0 8.21875,-3.6898 8.21875,-8.25 l 0,-47.1563 47.15625,0 c 4.56016,0 8.25,-3.6585 8.25,-8.2187 l 0,-34.5937 c 0,-4.5602 -3.68984,-8.25 -8.25,-8.25 l -47.15625,0 0,-47.1563 c 0,-4.56016 -3.65859,-8.21875 -8.21875,-8.21875 l -34.625,0 z"
       id="rect4752-7" />
    <rect
       style="fill:#485053;fill-opacity:1;stroke:none"
       id="rect6093-8"
       width="210.52827"
       height="93.468582"
       x="-34.785816"
       y="1030.5923"
       ry="46.734291"
       transform="matrix(0.78928545,-0.61402645,0.61402645,0.78928545,0,0)" />
    <rect
       style="fill:#485053;fill-opacity:1;stroke:none"
       id="rect6093-8-7"
       width="210.52827"
       height="93.468582"
       x="-5.8200593"
       y="1142.7551"
       ry="46.734291"
       transform="matrix(0.78928545,-0.61402645,0.61402645,0.78928545,0,0)" />
    <rect
       style="fill:#485053;fill-opacity:1;stroke:none"
       id="rect6211-4"
       width="81.50676"
       height="30.617825"
       x="-166.43669"
       y="983.2132"
       ry="15.308912"
       transform="matrix(0.79913723,-0.60114864,0.60114864,0.79913723,0,0)" />
    <rect
       style="fill:#485053;fill-opacity:1;stroke:none"
       id="rect6211-4-4"
       width="81.50676"
       height="30.617825"
       x="-250.57005"
       y="919.92401"
       ry="15.308912"
       transform="matrix(0.79913723,-0.60114864,0.60114864,0.79913723,0,0)" />
    <g
       id="g3182"
       transform="translate(-64.514153,-47.7499)"
       style="fill:#540085;fill-opacity:1">
      <path
         inkscape:connector-curvature="0"
         id="path4944-2"
         d="m 264.85794,1108.7365 0,0.1875 c -110.66228,4.3548 -199.031235,95.4264 -199.031235,207.1563 0,114.5083 92.835355,207.3124 207.343735,207.3124 42.6828,0 82.3734,-12.8891 115.34375,-35 5.8075,-3.8947 7.64395,-5.0332 13.40625,-7.875 5.5785,-2.7511 12.50665,-4.6562 16.40625,-4.6562 l 129.25,0 3.875,0 129.28125,0 c 3.8996,0 10.7965,1.9051 16.375,4.6562 5.7623,2.8418 7.63,3.9803 13.4375,7.875 32.9704,22.1109 72.6297,35 115.3125,35 114.5084,0 207.34376,-92.8041 207.34366,-207.3124 0,-111.7299 -88.36886,-202.8015 -199.03116,-207.1563 l 0,-0.1875 -8.3125,0 -274.40625,0 -3.875,0 -274.40625,0 -8.3125,0 z"
         style="fill:#540085;fill-opacity:1;stroke:none" />
      <path
         sodipodi:nodetypes="ccccaacaasaczssssscccaaasczccsscczczccccccccccccccc"
         inkscape:connector-curvature="0"
         id="path5631-77"
         d="m 718.62304,1108.0445 40.3204,0 33.9345,0 36.7312,0 c 0,0 2.6731,-0.038 4.0088,0 3.775,0.1083 7.5469,0.3434 11.311,0.6493 3.465,0.2816 6.7972,0.6238 10.3722,1.0914 3.6295,0.5189 6.6207,0.7919 9.9035,1.3645 2.632,0.459 5.245,1.0295 7.8415,1.6587 2.6655,0.646 5.3237,1.4089 7.9363,2.171 2.1519,0.6277 4.2502,1.2893 6.3614,1.9776 3.6865,1.2019 7.9359,2.66 11.0088,3.7575 1.7036,0.6341 3.0398,1.143 4.9481,1.9214 1.9084,0.7784 4.3791,1.8085 6.4892,2.7755 2.1849,1.0013 4.3896,2.0437 6.5109,3.108 1.9984,1.0025 4.0237,2.0447 5.9658,3.0886 0.9377,0.504 1.8069,0.9606 2.7182,1.442 0.6429,0.3398 1.2851,0.6981 1.9281,1.0465 0.335,0.1815 1.0053,0.5439 1.0053,0.5439 l 0.6592,-5.455 c -0.2656,-0.814 -1.0099,-1.4051 -1.6607,-1.7322 -1.1279,-0.7048 -2.1553,-1.3182 -3.2339,-1.9758 -1.4439,-0.8804 -2.8666,-1.7967 -4.3343,-2.6369 -1.0068,-0.5763 -2.0284,-1.1277 -3.0653,-1.648 -1.2301,-0.6173 -2.4981,-1.1561 -3.7411,-1.7469 -1.0141,-0.482 -1.9695,-0.9716 -3.0323,-1.4668 -1.0628,-0.4951 -0.8197,-0.464 -3.3455,-1.4997 -2.5258,-1.0357 -8.4374,-3.1285 -11.9124,-4.4412 -2.6724,-0.9451 -4.0954,-1.3878 -5.9028,-2.019 -3.3015,-1.0589 -6.1511,-1.6975 -10.3496,-2.8017 -2.5408,-0.6682 -3.7782,-1.1861 -6.6416,-1.681 -2.5356,-0.4382 -4.4983,-0.8874 -6.4372,-1.1644 l -2.4127,-0.3682 c 0,0 -1.7733,-0.2715 -3.0983,-0.445 -1.325,-0.1735 -3.5086,-0.442 -4.8542,-0.574 -1.516,-0.1446 -2.5805,-0.2983 -5.9935,-0.7082 -3.413,-0.4099 -7.8908,-0.7056 -11.783,-1.0302 -1.974,-0.1658 -6.2427,-0.3739 -6.2427,-0.3739 l -12.3932,0 -16.4967,0 -15.4256,0 -15.03,0 -15.6727,0 -14.8323,0 -10.5638,0 -2.7193,0 -3.4773,0.3131 -2.6039,0.9559 -1.7469,1.3349 -1.0053,1.5409 z"
         style="fill:#540085;fill-opacity:1;stroke:none" />
      <path
         sodipodi:nodetypes="ccccaacaasaczssssscccaaasczccsscczczccccccccccccccc"
         inkscape:connector-curvature="0"
         id="path5631-7-3"
         d="m 380.41967,1108.0445 -40.32035,0 -33.9345,0 -36.7312,0 c 0,0 -2.6731,-0.038 -4.0088,0 -3.775,0.1083 -7.5469,0.3434 -11.31099,0.6493 -3.465,0.2816 -6.7972,0.6238 -10.3722,1.0914 -3.6295,0.5189 -6.6207,0.7919 -9.9035,1.3645 -2.632,0.459 -5.245,1.0295 -7.8415,1.6587 -2.6655,0.646 -5.3237,1.4089 -7.9363,2.171 -2.1519,0.6277 -4.2502,1.2893 -6.3614,1.9776 -3.6865,1.2019 -7.9359,2.66 -11.0088,3.7575 -1.7036,0.6341 -3.0398,1.143 -4.9481,1.9214 -1.9084,0.7784 -4.3791,1.8085 -6.4892,2.7755 -2.1849,1.0013 -4.3896,2.0437 -6.5109,3.108 -1.9984,1.0025 -4.0237,2.0447 -5.9658,3.0886 -0.9377,0.504 -1.8069,0.9606 -2.7182,1.442 -0.6429,0.3398 -1.2851,0.6981 -1.9281,1.0465 -0.335,0.1815 -1.0053,0.5439 -1.0053,0.5439 l -0.6592,-5.455 c 0.2656,-0.814 1.0099,-1.4051 1.6607,-1.7322 1.1279,-0.7048 2.1553,-1.3182 3.2339,-1.9758 1.4439,-0.8804 2.8666,-1.7967 4.3343,-2.6369 1.0068,-0.5763 2.0284,-1.1277 3.0653,-1.648 1.2301,-0.6173 2.4981,-1.1561 3.7411,-1.7469 1.0141,-0.482 1.9695,-0.9716 3.0323,-1.4668 1.0628,-0.4951 0.8197,-0.464 3.3455,-1.4997 2.5258,-1.0357 8.4374,-3.1285 11.9124,-4.4412 2.6724,-0.9451 4.0954,-1.3878 5.9028,-2.019 3.3015,-1.0589 6.1511,-1.6975 10.3496,-2.8017 2.5408,-0.6682 3.7782,-1.1861 6.6416,-1.681 2.5356,-0.4382 4.4983,-0.8874 6.4372,-1.1644 l 2.4127,-0.3682 c 0,0 1.7733,-0.2715 3.0983,-0.445 1.325,-0.1735 3.5086,-0.442 4.8542,-0.574 1.516,-0.1446 2.5805,-0.2983 5.9935,-0.7082 3.413,-0.4099 7.89079,-0.7056 11.78299,-1.0302 1.974,-0.1658 6.2427,-0.3739 6.2427,-0.3739 l 12.3932,0 16.4967,0 15.4256,0 15.03,0 15.6727,0 14.8323,0 10.56375,0 2.7193,0 3.4773,0.3131 2.6039,0.9559 1.7469,1.3349 1.0053,1.5409 z"
         style="fill:#540085;fill-opacity:1;stroke:none" />
    </g>
    <text
       xml:space="preserve"
       style="font-style:normal;font-variant:normal;font-weight:bold;font-stretch:normal;line-height:0%;font-family:'DejaVu Sans';-inkscape-font-specification:'DejaVu Sans Bold';text-align:start;letter-spacing:0px;word-spacing:0px;writing-mode:lr-tb;text-anchor:start;fill:#c0bce8;fill-opacity:1;stroke:none;"
       x="197.05273"
       y="1290.5916"
       id="text3187"><tspan
         sodipodi:role="line"
         id="tspan3189"
         x="197.05273"
         y="1290.5916"
         style="font-size:72px;line-height:1.25;fill:#c0bce8;fill-opacity:1;">DISCONECTED</tspan></text>
    <path
       style="fill:#c0bce8;fill-opacity:1;stroke:none"
       d="m 1178.6419,635.77417 -40.3204,0 -33.9345,0 -36.7312,0 c 0,0 -2.6731,-0.0383 -4.0088,0 -3.775,0.10826 -7.5469,0.34337 -11.311,0.64927 -3.465,0.2816 -6.7972,0.62384 -10.3722,1.09142 -3.6295,0.51893 -6.6207,0.79185 -9.9035,1.36446 -2.632,0.45908 -5.245,1.02958 -7.8415,1.65877 -2.6655,0.64592 -5.3237,1.40889 -7.9363,2.17097 -2.1519,0.6277 -4.2502,1.28931 -6.3614,1.97763 -3.6865,1.20191 -7.9359,2.65995 -11.00883,3.75751 -1.7036,0.63406 -3.0398,1.14299 -4.9481,1.92136 -1.9084,0.77837 -4.3791,1.8085 -6.4892,2.77552 -2.1849,1.0013 -4.3896,2.0437 -6.5109,3.10794 -1.9984,1.00257 -4.0237,2.04475 -5.9658,3.08865 -0.9377,0.50399 -1.8069,0.96055 -2.7182,1.44201 -0.6429,0.33974 -1.2851,0.69812 -1.9281,1.0465 -0.335,0.18151 -1.0053,0.54386 -1.0053,0.54386 l -0.6592,-5.45497 c 0.2656,-0.81403 1.0099,-1.40516 1.6607,-1.73218 1.1279,-0.70484 2.1553,-1.31828 3.2339,-1.97588 1.4439,-0.88033 2.8666,-1.79666 4.3343,-2.63684 1.0068,-0.57635 2.0284,-1.12774 3.0653,-1.64803 1.2301,-0.61726 2.4981,-1.1561 3.7411,-1.74691 1.0141,-0.482 1.9695,-0.97162 3.0323,-1.46674 1.0628,-0.49512 0.8197,-0.46399 3.3455,-1.49971 2.5258,-1.03572 8.4374,-3.12854 11.91243,-4.44119 2.6724,-0.9451 4.0954,-1.3878 5.9028,-2.01907 3.3015,-1.05884 6.1511,-1.69749 10.3496,-2.80165 2.5408,-0.66819 3.7782,-1.18612 6.6416,-1.68099 2.5356,-0.43822 4.4983,-0.88747 6.4372,-1.16445 l 2.4127,-0.36822 c 0,0 1.7733,-0.2715 3.0983,-0.44496 1.325,-0.17346 3.5086,-0.44201 4.8542,-0.57398 1.516,-0.14464 2.5805,-0.29828 5.9935,-0.70817 3.413,-0.4099 7.8908,-0.70566 11.783,-1.03026 1.974,-0.16575 6.2427,-0.37388 6.2427,-0.37388 l 12.3932,0 16.4967,0 15.4256,0 15.03,0 15.6727,0 14.8323,0 10.5638,0 2.7193,0 3.4773,0.31313 2.6039,0.95585 1.7469,1.3349 1.0053,1.54091 z"
       id="path5631-7-4"
       inkscape:connector-curvature="0"
       sodipodi:nodetypes="ccccaacaasaczssssscccaaasczccsscczczccccccccccccccc" />
    <rect
       style="fill:#c0bce8;fill-opacity:1;stroke:none"
       id="rect6211-4-4-2"
       width="81.50676"
       height="30.617825"
       x="533.39093"
       y="1241.5049"
       ry="15.308912"
       transform="matrix(0.79913723,-0.60114864,0.60114864,0.79913723,0,0)" />
    <path
       sodipodi:type="arc"
       style="opacity:0.98999999;fill:#c0bce8;fill-opacity:1;stroke:#ffffff;stroke-width:0.78510028;stroke-miterlimit:4;stroke-opacity:1;stroke-dasharray:none"
       id="path6149-4"
       sodipodi:cx="1216.689"
       sodipodi:cy="468.91046"
       sodipodi:rx="28.928564"
       sodipodi:ry="28.928564"
       d="m 1245.6175,468.91046 a 28.928564,28.928564 0 0 1 -28.9285,28.92857 28.928564,28.928564 0 0 1 -28.9286,-28.92857 28.928564,28.928564 0 0 1 28.9286,-28.92856 28.928564,28.928564 0 0 1 28.9285,28.92856 z"
       transform="matrix(1.2737226,0,0,1.2737226,-262.36882,68.687054)" />
    <path
       style="fill:#c0bce8;fill-opacity:1;stroke:#ffffff;stroke-opacity:1"
       inkscape:transform-center-x="-2.3103301"
       inkscape:transform-center-y="-5.1055936"
       d="m 1358.1942,661.72834 -32.9918,-0.031 16.5197,-32.5954 z"
       id="path6000-5-0"
       inkscape:connector-curvature="0" />
    <g
       id="g3172"
       transform="translate(266.18968,-324.31703)">
      <path
         id="path5695-4"
         transform="translate(1.3125275,628.60194)"
         d="m 1206.5938,324.875 c -63.433,0 -114.8438,51.41104 -114.8438,114.84375 0,63.43271 51.4108,114.84375 114.8438,114.84375 63.4324,0 114.875,-51.41104 114.875,-114.84375 0,-63.43271 -51.4426,-114.84375 -114.875,-114.84375 z m 0.031,42.40625 16.4688,32.625 -33,-0.0312 16.5312,-32.59375 z m -39.875,55.9375 0.031,33 -32.625,-16.46875 32.5938,-16.53125 z m 79.6875,0 32.5937,16.53125 -32.625,16.46875 0.031,-33 z m -23.3437,56.28125 -16.4688,32.625 -16.5312,-32.59375 33,-0.0312 z"
         style="fill:#c4c1bc;fill-opacity:1;stroke:#747b81;stroke-width:1.11594212;stroke-opacity:1"
         inkscape:connector-curvature="0" />
      <path
         id="rect4752-7-2"
         transform="translate(1.3125275,628.60194)"
         d="m 1189.2812,358.78125 c -4.5597,0 -8.2187,3.65859 -8.2187,8.21875 l 0,47.15625 -47.1563,0 c -4.5597,0 -8.25,3.6898 -8.25,8.25 l 0,34.59375 c 0,4.5602 3.6903,8.21875 8.25,8.21875 l 47.1563,0 0,47.15625 c 0,4.5602 3.659,8.25 8.2187,8.25 l 34.625,0 c 4.5605,0 8.2188,-3.6898 8.2188,-8.25 l 0,-47.15625 47.1562,0 c 4.5605,0 8.25,-3.65855 8.25,-8.21875 l 0,-34.59375 c 0,-4.5602 -3.6896,-8.25 -8.25,-8.25 l -47.1562,0 0,-47.15625 c 0,-4.56016 -3.6584,-8.21875 -8.2188,-8.21875 l -34.625,0 z m 17.3438,8.5 16.4688,32.625 -33,-0.0312 16.5312,-32.59375 z m -39.875,55.9375 0.031,33 -32.625,-16.46875 32.5938,-16.53125 z m 79.6875,0 32.5937,16.53125 -32.625,16.46875 0.031,-33 z m -23.3437,56.28125 -16.4688,32.625 -16.5312,-32.59375 33,-0.0312 z"
         style="fill:#485053;fill-opacity:1;stroke:#1a1c1b;stroke-width:3;stroke-linecap:butt;stroke-linejoin:bevel;stroke-miterlimit:4;stroke-opacity:1;stroke-dasharray:none"
         inkscape:connector-curvature="0" />
    </g>
  </g>
</svg>
